<svg width="48" height="48" viewBox="0 0 48 48" fill="none" xmlns="http://www.w3.org/2000/svg"><path d="M9.48148 40H46.5185C47.3333 40 48 39.2 48 38.2222V9.77778C48 8.8 47.3333 8 46.5185 8H9.48148C8.66667 8 8 8.8 8 9.77778V38.2222C8 39.2 8.66667 40 9.48148 40Z" fill="#0052FF"/><path d="M27 48L27 0L0 9.85319e-10L1.75168e-09 48L27 48Z" fill="#BFE9FF"/><path d="M27 48L27 0L0 9.85319e-10L1.75168e-09 48L27 48Z" fill="#CED2DB"/><path d="M27 8H9.46154C8.65769 8 8 8.8 8 9.77778V38.2222C8 39.2 8.65769 40 9.46154 40H27V8Z" fill="#0A0B0D"/><path d="M18 24C19.6569 24 21 22.6569 21 21C21 19.3431 19.6569 18 18 18C16.3431 18 15 19.3431 15 21C15 22.6569 16.3431 24 18 24Z" fill="white"/><path d="M18 25.5C14.685 25.5 12 27.5175 12 30H24C24 27.5175 21.315 25.5 18 25.5Z" fill="white"/><path fill-rule="evenodd" clip-rule="evenodd" d="M48 24H27V40H46.5185C47.3333 40 48 39.2 48 38.2222V24Z" fill="#CED2DB"/><path d="M37.5 26L38.4717 30.94L43 32L38.4717 33.06L37.5 38L36.5283 33.06L32 32L36.5283 30.94L37.5 26Z" fill="#0A0B0D"/><path fill-rule="evenodd" clip-rule="evenodd" d="M43.6905 12.7233L35.6667 20.3824L31.3095 16.2233L32.6905 14.7766L35.6667 17.6175L42.3095 11.2766L43.6905 12.7233Z" fill="white"/></svg>