<svg width="48" height="48" viewBox="0 0 48 48" fill="none" xmlns="http://www.w3.org/2000/svg"><path d="M48 24H0V48H48V24Z" fill="#CED2DB"/><path d="M24 48C17.6348 48 11.5303 45.4714 7.02944 40.9706C2.52856 36.4697 0 30.3652 0 24H18C18 25.5913 18.6321 27.1174 19.7574 28.2426C20.8826 29.3679 22.4087 30 24 30C25.5913 30 27.1174 29.3679 28.2426 28.2426C29.3679 27.1174 30 25.5913 30 24H48C48 30.3652 45.4714 36.4697 40.9706 40.9706C36.4697 45.4714 30.3652 48 24 48Z" fill="#0052FF"/><path d="M48 24H30C30 22.4087 29.3679 20.8826 28.2426 19.7574C27.1174 18.6321 25.5913 18 24 18C22.4087 18 20.8826 18.6321 19.7574 19.7574C18.6321 20.8826 18 22.4087 18 24H0C0 17.6348 2.52856 11.5303 7.02944 7.02944C11.5303 2.52856 17.6348 0 24 0C30.3652 0 36.4697 2.52856 40.9706 7.02944C45.4714 11.5303 48 17.6348 48 24Z" fill="#CED2DB"/><path d="M9 32.98C13.9706 32.98 18 28.9505 18 23.98C18 19.0094 13.9706 14.98 9 14.98C4.02944 14.98 0 19.0094 0 23.98C0 28.9505 4.02944 32.98 9 32.98Z" fill="#0A0B0D"/><path d="M0 24C0 21.6131 0.948212 19.3239 2.63604 17.636C4.32387 15.9482 6.61305 15 9 15C11.3869 15 13.6761 15.9482 15.364 17.636C17.0518 19.3239 18 21.6131 18 24H0Z" fill="#0052FF"/><path d="M11.09 19.89H6.91C5.80543 19.89 4.91 20.7854 4.91 21.89V26.07C4.91 27.1746 5.80543 28.07 6.91 28.07H11.09C12.1946 28.07 13.09 27.1746 13.09 26.07V21.89C13.09 20.7854 12.1946 19.89 11.09 19.89Z" fill="white"/><path d="M39 32.98C43.9706 32.98 48 28.9505 48 23.98C48 19.0094 43.9706 14.98 39 14.98C34.0294 14.98 30 19.0094 30 23.98C30 28.9505 34.0294 32.98 39 32.98Z" fill="#0052FF"/><path d="M48 24C48 26.3869 47.0518 28.6761 45.364 30.364C43.6761 32.0518 41.3869 33 39 33C36.6131 33 34.3239 32.0518 32.636 30.364C30.9482 28.6761 30 26.3869 30 24H48Z" fill="#0A0B0D"/><path d="M38.98 23.98C40.7363 23.98 42.16 22.5563 42.16 20.8C42.16 19.0437 40.7363 17.62 38.98 17.62C37.2237 17.62 35.8 19.0437 35.8 20.8C35.8 22.5563 37.2237 23.98 38.98 23.98Z" fill="white"/><path d="M39 24C38.1653 23.9987 37.3385 24.162 36.5669 24.4805C35.7953 24.799 35.0941 25.2666 34.5034 25.8563C33.9127 26.4461 33.4441 27.1466 33.1243 27.9177C32.8046 28.6887 32.64 29.5153 32.64 30.35C34.3271 32.0324 36.6124 32.9771 38.995 32.9771C41.3776 32.9771 43.6629 32.0324 45.35 30.35C45.35 28.6659 44.681 27.0507 43.4901 25.8599C42.2993 24.669 40.6841 24 39 24Z" fill="white"/></svg>