<svg width="48" height="48" viewBox="0 0 48 48" fill="none" xmlns="http://www.w3.org/2000/svg"><path d="M0 24H48V48H0V24Z" fill="#CED2DB"/><path d="M6 8H14V24H6V8Z" fill="#00D17F"/><path d="M6 24H14V32H6V24Z" fill="#0A0B0D"/><path d="M20 16H28V24H20V16Z" fill="#FF3344"/><path d="M20 24H28V40H20V24Z" fill="#0A0B0D"/><path d="M34 6H42V24H34V6Z" fill="#00D17F"/><path d="M34 24H42V30H34V24Z" fill="#0A0B0D"/><path d="M23 10H25V16H23V10Z" fill="#FF3344"/><path d="M9 2H11V8H9V2Z" fill="#00D17F"/><path d="M37 0H39V6H37V0Z" fill="#00D17F"/><path d="M37 30H39V36H37V30Z" fill="#0A0B0D"/><path d="M9 32H11V38H9V32Z" fill="#0A0B0D"/><path d="M23 40H25V46H23V40Z" fill="#0A0B0D"/></svg>