<svg width="40" height="40" fill="none" xmlns="http://www.w3.org/2000/svg"><path d="M5.333 6c0-.368.299-.667.667-.667h17.333c.369 0 .667.299.667.667v28a.667.667 0 0 1-.667.667H6A.667.667 0 0 1 5.333 34V6Z" fill="#CED2DB"/><path d="M24 9.333H5.333v21.334H24V9.333Z" fill="#0052FF"/><path d="M12.667 32.667c0-.369.298-.667.666-.667H16a.667.667 0 0 1 0 1.333h-2.667a.667.667 0 0 1-.666-.666ZM15.333 7.333a.667.667 0 1 1-1.333 0 .667.667 0 0 1 1.333 0Z" fill="#0A0B0D"/><circle cx="25.333" cy="20" r="9.333" fill="#0A0B0D"/><path fill-rule="evenodd" clip-rule="evenodd" d="M24 29.239a9.333 9.333 0 1 0 0-18.478V29.24Z" fill="#CED2DB"/><circle cx="25.333" cy="20" fill="#fff" r="8"/><path d="m25.333 16 1.113 2.812 2.887.244-2.2 1.981.672 2.963-2.472-1.588L22.861 24l.672-2.963-2.2-1.981 2.888-.244L25.333 16Z" fill="#0052FF"/></svg>