<svg width="40" height="40" fill="none" xmlns="http://www.w3.org/2000/svg"><path d="M40 5.667a1 1 0 0 0-1-1h-6.667a2.213 2.213 0 0 0-1.588.808l-1.352 1.858H7.667A1.667 1.667 0 0 0 6 9v23.667h34v-27Z" fill="#CED2DB"/><path d="m39.5 31.075-5-16.15a2.411 2.411 0 0 0-2.167-1.592H1.667c-.917 0-1.445.717-1.167 1.592L6 32.667h32.333c.917 0 1.445-.717 1.167-1.592Z" fill="#5DE2F8"/><path d="m40 32.667-5.5-17.742a2.411 2.411 0 0 0-2.167-1.592H6v19.334h34ZM18.667 13.333l7.071-7.071a9.64 9.64 0 0 1 2.929 7.071h-10Z" fill="#0052FF"/><path d="M18.667 3.333a9.64 9.64 0 0 0-7.072 2.929 9.64 9.64 0 0 0-2.928 7.071h10l7.071-7.071a9.64 9.64 0 0 0-7.071-2.929Z" fill="#FFD200"/><path fill-rule="evenodd" clip-rule="evenodd" d="M10.833 13.333a7.833 7.833 0 0 1 15.667 0H10.833Zm-.333 0a8.167 8.167 0 1 1 16.333 0h1.834a9.64 9.64 0 0 1-2.929 7.072 9.64 9.64 0 0 1-7.071 2.928 9.64 9.64 0 0 1-7.072-2.928 9.64 9.64 0 0 1-2.928-7.072H10.5Z" fill="#0A0B0D"/></svg>